<svg xmlns="http://www.w3.org/2000/svg" version="1.1" xmlns:xlink="http://www.w3.org/1999/xlink" xmlns:svgjs="http://svgjs.dev/svgjs" viewBox="0 0 10.737638023532776 5.722445993235519"><g transform="matrix(0.8066463869298826,0,0,0.8066463869298826,2.4786193836627923,2.201305587470423)"><g transform="matrix(1,0,0,1,0,0)"><g clip-path="url(#SvgjsClipPath100791)"><path d=" M -1.1000000000000005 -1.3572861625857473 L 8.26596435546875 -1.3572861625857473 L 8.26596435546875 2.069286162585747 L -1.1000000000000005 2.069286162585747 Z" fill="#af2cff" transform="matrix(1,0,0,1,0,0)" fill-rule="nonzero"></path></g></g><g transform="matrix(1,0,0,1,0,0)"><path d=" M 0.12 0.712 L 0.211 0.712 L 0.211 0.46599999999999997 L 0.324 0.345 L 0.59 0.712 L 0.6940000000000001 0.712 L 0.382 0.283 L 0.636 0.0119999999999999 L 0.586 0.0119999999999999 L 0.211 0.40599999999999997 L 0.211 0.0119999999999999 L 0.12 0.0119999999999999 L 0.12 0.712 M 1.2319990234375 0.506 L 1.3279990234375 0.712 L 1.4249990234375 0.712 L 1.0989990234375 0.0119999999999999 L 1.0489990234375 0.0119999999999999 L 0.7529990234375 0.712 L 0.7989990234375 0.712 L 0.8869990234375 0.506 L 1.2319990234375 0.506 M 1.2109990234375 0.46099999999999997 L 0.9059990234374999 0.46099999999999997 L 1.0499990234375 0.124 L 1.0539990234375 0.124 L 1.2109990234375 0.46099999999999997 M 1.5739936523437499 0.712 L 1.82499365234375 0.712 Q 1.89199365234375 0.712 1.93799365234375 0.6945 Q 1.98399365234375 0.6769999999999999 2.01199365234375 0.649 Q 2.03999365234375 0.621 2.05249365234375 0.5854999999999999 Q 2.06499365234375 0.5499999999999999 2.06499365234375 0.514 Q 2.06499365234375 0.45699999999999996 2.0404936523437502 0.423 Q 2.01599365234375 0.38899999999999996 1.98199365234375 0.37099999999999994 Q 1.94799365234375 0.353 1.91199365234375 0.347 Q 1.87599365234375 0.34099999999999997 1.8539936523437501 0.33999999999999997 L 1.8539936523437501 0.33599999999999997 Q 1.88899365234375 0.33599999999999997 1.91999365234375 0.32249999999999995 Q 1.95099365234375 0.30899999999999994 1.97449365234375 0.2875 Q 1.99799365234375 0.26599999999999996 2.01199365234375 0.23749999999999993 Q 2.0259936523437503 0.20899999999999996 2.0259936523437503 0.17699999999999994 Q 2.0259936523437503 0.1489999999999999 2.01399365234375 0.12 Q 2.0019936523437503 0.09099999999999997 1.97749365234375 0.06699999999999995 Q 1.9529936523437499 0.04299999999999993 1.91449365234375 0.02749999999999997 Q 1.87599365234375 0.0119999999999999 1.8239936523437499 0.0119999999999999 L 1.5739936523437499 0.0119999999999999 L 1.5739936523437499 0.712 M 1.66499365234375 0.6679999999999999 L 1.66499365234375 0.36199999999999993 L 1.77499365234375 0.36199999999999993 Q 1.8239936523437499 0.36199999999999993 1.85999365234375 0.37499999999999994 Q 1.89599365234375 0.38799999999999996 1.91949365234375 0.41 Q 1.94299365234375 0.43199999999999994 1.95449365234375 0.46099999999999997 Q 1.96599365234375 0.49 1.96599365234375 0.522 Q 1.96599365234375 0.5569999999999999 1.95349365234375 0.584 Q 1.9409936523437499 0.611 1.91999365234375 0.63 Q 1.89899365234375 0.649 1.8704936523437499 0.6585 Q 1.8419936523437501 0.6679999999999999 1.80999365234375 0.6679999999999999 L 1.66499365234375 0.6679999999999999 M 1.66499365234375 0.31799999999999995 L 1.66499365234375 0.05599999999999994 L 1.78699365234375 0.05599999999999994 Q 1.82599365234375 0.05599999999999994 1.85349365234375 0.06699999999999995 Q 1.88099365234375 0.07799999999999996 1.89849365234375 0.09599999999999997 Q 1.91599365234375 0.11399999999999999 1.92399365234375 0.1369999999999999 Q 1.93199365234375 0.15999999999999992 1.93199365234375 0.18299999999999994 Q 1.93199365234375 0.21199999999999997 1.9204936523437501 0.23699999999999993 Q 1.90899365234375 0.26199999999999996 1.88849365234375 0.27999999999999997 Q 1.86799365234375 0.29799999999999993 1.84149365234375 0.30799999999999994 Q 1.81499365234375 0.31799999999999995 1.78499365234375 0.31799999999999995 L 1.66499365234375 0.31799999999999995 M 2.62300439453125 0.506 L 2.71900439453125 0.712 L 2.81600439453125 0.712 L 2.4900043945312498 0.0119999999999999 L 2.44000439453125 0.0119999999999999 L 2.1440043945312497 0.712 L 2.19000439453125 0.712 L 2.27800439453125 0.506 L 2.62300439453125 0.506 M 2.60200439453125 0.46099999999999997 L 2.2970043945312497 0.46099999999999997 L 2.44100439453125 0.124 L 2.44500439453125 0.124 L 2.60200439453125 0.46099999999999997 M 3.323974609375 0.712 L 3.323974609375 0.0119999999999999 L 3.553974609375 0.0119999999999999 Q 3.636974609375 0.0119999999999999 3.705974609375 0.03849999999999998 Q 3.774974609375 0.06499999999999995 3.824474609375 0.11149999999999993 Q 3.8739746093750003 0.15799999999999992 3.901474609375 0.22199999999999998 Q 3.928974609375 0.286 3.928974609375 0.36 Q 3.928974609375 0.43699999999999994 3.9004746093750002 0.5015 Q 3.871974609375 0.566 3.822474609375 0.613 Q 3.772974609375 0.6599999999999999 3.706974609375 0.6859999999999999 Q 3.640974609375 0.712 3.565974609375 0.712 L 3.323974609375 0.712 M 3.414974609375 0.6679999999999999 L 3.524974609375 0.6679999999999999 Q 3.6069746093750004 0.6679999999999999 3.664474609375 0.6405 Q 3.721974609375 0.613 3.758974609375 0.569 Q 3.795974609375 0.5249999999999999 3.812974609375 0.4705 Q 3.8299746093750002 0.416 3.8299746093750002 0.36199999999999993 Q 3.8299746093750002 0.30199999999999994 3.809974609375 0.24649999999999994 Q 3.789974609375 0.19099999999999995 3.751474609375 0.14849999999999997 Q 3.7129746093750002 0.10599999999999998 3.6559746093750003 0.08099999999999996 Q 3.5989746093750004 0.05599999999999994 3.524974609375 0.05599999999999994 L 3.414974609375 0.05599999999999994 L 3.414974609375 0.6679999999999999 M 4.1179892578125 0.0119999999999999 L 4.1179892578125 0.712 L 4.2089892578125 0.712 L 4.2089892578125 0.0119999999999999 L 4.1179892578125 0.0119999999999999 M 4.877000000000001 0.506 L 4.973000000000001 0.712 L 5.07 0.712 L 4.744000000000001 0.0119999999999999 L 4.694 0.0119999999999999 L 4.398000000000001 0.712 L 4.444 0.712 L 4.532 0.506 L 4.877000000000001 0.506 M 4.856 0.46099999999999997 L 4.551 0.46099999999999997 L 4.695 0.124 L 4.699000000000001 0.124 L 4.856 0.46099999999999997 M 5.21899462890625 0.712 L 5.21899462890625 0.0119999999999999 L 5.30999462890625 0.0119999999999999 L 5.30999462890625 0.6569999999999999 L 5.67099462890625 0.6569999999999999 L 5.67099462890625 0.712 L 5.21899462890625 0.712 M 5.819984375 0.712 L 5.819984375 0.0119999999999999 L 5.910984375 0.0119999999999999 L 5.910984375 0.6569999999999999 L 6.271984375 0.6569999999999999 L 6.271984375 0.712 L 5.819984375 0.712 M 6.350974121093749 0.36199999999999993 Q 6.350974121093749 0.418 6.37247412109375 0.48149999999999993 Q 6.393974121093749 0.5449999999999999 6.43997412109375 0.599 Q 6.485974121093749 0.6529999999999999 6.5569741210937496 0.6885 Q 6.627974121093749 0.724 6.7269741210937495 0.724 Q 6.79397412109375 0.724 6.84847412109375 0.7075 Q 6.90297412109375 0.691 6.9464741210937495 0.6629999999999999 Q 6.989974121093749 0.635 7.021974121093749 0.5984999999999999 Q 7.053974121093749 0.5619999999999999 7.07447412109375 0.5215 Q 7.094974121093749 0.481 7.105474121093749 0.43999999999999995 Q 7.11597412109375 0.39899999999999997 7.11597412109375 0.36199999999999993 Q 7.11597412109375 0.30599999999999994 7.092974121093749 0.24249999999999994 Q 7.0699741210937495 0.17899999999999994 7.021974121093749 0.125 Q 6.973974121093749 0.07099999999999995 6.900474121093749 0.035499999999999976 Q 6.826974121093749 0 6.7269741210937495 0 Q 6.627974121093749 0 6.5569741210937496 0.03499999999999992 Q 6.485974121093749 0.06999999999999995 6.43997412109375 0.12349999999999994 Q 6.393974121093749 0.17699999999999994 6.37247412109375 0.24099999999999994 Q 6.350974121093749 0.30499999999999994 6.350974121093749 0.36199999999999993 M 6.448974121093749 0.36199999999999993 Q 6.448974121093749 0.292 6.4704741210937495 0.23349999999999993 Q 6.491974121093749 0.17499999999999993 6.52947412109375 0.133 Q 6.566974121093749 0.09099999999999997 6.6179741210937495 0.0675 Q 6.66897412109375 0.04399999999999993 6.728974121093749 0.04399999999999993 Q 6.787974121093749 0.04399999999999993 6.84047412109375 0.0675 Q 6.892974121093749 0.09099999999999997 6.932474121093749 0.133 Q 6.97197412109375 0.17499999999999993 6.994974121093749 0.23349999999999993 Q 7.017974121093749 0.292 7.017974121093749 0.36199999999999993 Q 7.017974121093749 0.43199999999999994 6.994974121093749 0.49049999999999994 Q 6.97197412109375 0.5489999999999999 6.932474121093749 0.591 Q 6.892974121093749 0.633 6.84047412109375 0.6565 Q 6.787974121093749 0.6799999999999999 6.728974121093749 0.6799999999999999 Q 6.66897412109375 0.6799999999999999 6.6179741210937495 0.6565 Q 6.566974121093749 0.633 6.52947412109375 0.591 Q 6.491974121093749 0.5489999999999999 6.4704741210937495 0.49049999999999994 Q 6.448974121093749 0.43199999999999994 6.448974121093749 0.36199999999999993" fill="#fffcf7" fill-rule="nonzero"></path></g><g transform="matrix(1,0,0,1,0,0)"><path d=" M 2.080909423828125 2.893886162585747 L 1.8901094238281253 2.893886162585747 L 1.8535094238281253 2.993486162585747 L 1.8091094238281253 2.993486162585747 L 1.9621094238281251 2.579486162585747 L 2.009509423828125 2.579486162585747 L 2.161909423828125 2.993486162585747 L 2.117509423828125 2.993486162585747 L 2.080909423828125 2.893886162585747 M 2.068309423828125 2.859086162585747 L 1.9855094238281252 2.632286162585747 L 1.9027094238281252 2.859086162585747 L 2.068309423828125 2.859086162585747 M 2.486795947265625 2.812886162585747 Q 2.5113959472656253 2.842286162585747 2.5113959472656253 2.881286162585747 Q 2.5113959472656253 2.913086162585747 2.495495947265625 2.938586162585747 Q 2.4795959472656253 2.964086162585747 2.448995947265625 2.978786162585747 Q 2.418395947265625 2.993486162585747 2.375795947265625 2.993486162585747 L 2.230595947265625 2.993486162585747 L 2.230595947265625 2.574086162585747 L 2.371595947265625 2.574086162585747 Q 2.4351959472656253 2.574086162585747 2.468495947265625 2.603486162585747 Q 2.501795947265625 2.632886162585747 2.501795947265625 2.679686162585747 Q 2.501795947265625 2.718686162585747 2.480795947265625 2.742986162585747 Q 2.4597959472656252 2.767286162585747 2.4267959472656253 2.776886162585747 Q 2.462195947265625 2.783486162585747 2.486795947265625 2.812886162585747 M 2.272595947265625 2.759486162585747 L 2.3703959472656253 2.759486162585747 Q 2.412995947265625 2.759486162585747 2.436095947265625 2.739386162585747 Q 2.4591959472656253 2.719286162585747 2.4591959472656253 2.683886162585747 Q 2.4591959472656253 2.649086162585747 2.436095947265625 2.629286162585747 Q 2.412995947265625 2.609486162585747 2.368595947265625 2.609486162585747 L 2.272595947265625 2.609486162585747 L 2.272595947265625 2.759486162585747 M 2.443895947265625 2.936486162585747 Q 2.469395947265625 2.914886162585747 2.469395947265625 2.877086162585747 Q 2.469395947265625 2.839286162585747 2.442695947265625 2.816786162585747 Q 2.415995947265625 2.794286162585747 2.3709959472656252 2.794286162585747 L 2.272595947265625 2.794286162585747 L 2.272595947265625 2.958086162585747 L 2.372795947265625 2.958086162585747 Q 2.418395947265625 2.958086162585747 2.443895947265625 2.936486162585747 M 2.673086865234375 2.970386162585747 Q 2.6256868652343752 2.943086162585747 2.598386865234375 2.894186162585747 Q 2.571086865234375 2.845286162585747 2.571086865234375 2.783486162585747 Q 2.571086865234375 2.721686162585747 2.598386865234375 2.672786162585747 Q 2.6256868652343752 2.623886162585747 2.673086865234375 2.596586162585747 Q 2.720486865234375 2.569286162585747 2.7786868652343752 2.569286162585747 Q 2.837486865234375 2.569286162585747 2.884886865234375 2.596586162585747 Q 2.932286865234375 2.623886162585747 2.959286865234375 2.672786162585747 Q 2.986286865234375 2.721686162585747 2.986286865234375 2.783486162585747 Q 2.986286865234375 2.845286162585747 2.959286865234375 2.894186162585747 Q 2.932286865234375 2.943086162585747 2.884886865234375 2.970386162585747 Q 2.837486865234375 2.997686162585747 2.7786868652343752 2.997686162585747 Q 2.720486865234375 2.997686162585747 2.673086865234375 2.970386162585747 M 2.862686865234375 2.939486162585747 Q 2.899886865234375 2.917886162585747 2.921486865234375 2.877386162585747 Q 2.943086865234375 2.836886162585747 2.943086865234375 2.783486162585747 Q 2.943086865234375 2.730086162585747 2.921486865234375 2.689886162585747 Q 2.899886865234375 2.649686162585747 2.862686865234375 2.6280861625857472 Q 2.825486865234375 2.606486162585747 2.7786868652343752 2.606486162585747 Q 2.731886865234375 2.606486162585747 2.694686865234375 2.6280861625857472 Q 2.6574868652343753 2.649686162585747 2.635886865234375 2.689886162585747 Q 2.614286865234375 2.730086162585747 2.614286865234375 2.783486162585747 Q 2.614286865234375 2.836886162585747 2.635886865234375 2.877386162585747 Q 2.6574868652343753 2.917886162585747 2.694686865234375 2.939486162585747 Q 2.731886865234375 2.961086162585747 2.7786868652343752 2.961086162585747 Q 2.825486865234375 2.961086162585747 2.862686865234375 2.939486162585747 M 3.104801806640625 2.574086162585747 L 3.104801806640625 2.838086162585747 Q 3.104801806640625 2.900486162585747 3.134501806640625 2.930486162585747 Q 3.1642018066406252 2.960486162585747 3.215801806640625 2.960486162585747 Q 3.267401806640625 2.960486162585747 3.296501806640625 2.930786162585747 Q 3.325601806640625 2.901086162585747 3.325601806640625 2.838086162585747 L 3.325601806640625 2.574086162585747 L 3.367601806640625 2.574086162585747 L 3.367601806640625 2.837486162585747 Q 3.367601806640625 2.917286162585747 3.325301806640625 2.957486162585747 Q 3.283001806640625 2.997686162585747 3.215201806640625 2.997686162585747 Q 3.147401806640625 2.997686162585747 3.105101806640625 2.957486162585747 Q 3.062801806640625 2.917286162585747 3.062801806640625 2.837486162585747 L 3.062801806640625 2.574086162585747 L 3.104801806640625 2.574086162585747 M 3.718908251953125 2.812886162585747 Q 3.7435082519531253 2.842286162585747 3.7435082519531253 2.881286162585747 Q 3.7435082519531253 2.913086162585747 3.727608251953125 2.938586162585747 Q 3.7117082519531253 2.964086162585747 3.681108251953125 2.978786162585747 Q 3.650508251953125 2.993486162585747 3.607908251953125 2.993486162585747 L 3.462708251953125 2.993486162585747 L 3.462708251953125 2.574086162585747 L 3.603708251953125 2.574086162585747 Q 3.6673082519531253 2.574086162585747 3.700608251953125 2.603486162585747 Q 3.733908251953125 2.632886162585747 3.733908251953125 2.679686162585747 Q 3.733908251953125 2.718686162585747 3.712908251953125 2.742986162585747 Q 3.691908251953125 2.767286162585747 3.6589082519531253 2.776886162585747 Q 3.694308251953125 2.783486162585747 3.718908251953125 2.812886162585747 M 3.504708251953125 2.759486162585747 L 3.6025082519531253 2.759486162585747 Q 3.645108251953125 2.759486162585747 3.668208251953125 2.739386162585747 Q 3.6913082519531253 2.719286162585747 3.6913082519531253 2.683886162585747 Q 3.6913082519531253 2.649086162585747 3.668208251953125 2.629286162585747 Q 3.645108251953125 2.609486162585747 3.600708251953125 2.609486162585747 L 3.504708251953125 2.609486162585747 L 3.504708251953125 2.759486162585747 M 3.676008251953125 2.936486162585747 Q 3.701508251953125 2.914886162585747 3.701508251953125 2.877086162585747 Q 3.701508251953125 2.839286162585747 3.674808251953125 2.816786162585747 Q 3.648108251953125 2.794286162585747 3.6031082519531252 2.794286162585747 L 3.504708251953125 2.794286162585747 L 3.504708251953125 2.958086162585747 L 3.604908251953125 2.958086162585747 Q 3.650508251953125 2.958086162585747 3.676008251953125 2.936486162585747 M 4.065399169921875 2.893886162585747 L 3.874599169921875 2.893886162585747 L 3.837999169921875 2.993486162585747 L 3.793599169921875 2.993486162585747 L 3.946599169921875 2.579486162585747 L 3.993999169921875 2.579486162585747 L 4.146399169921875 2.993486162585747 L 4.101999169921875 2.993486162585747 L 4.065399169921875 2.893886162585747 M 4.052799169921875 2.859086162585747 L 3.9699991699218753 2.632286162585747 L 3.887199169921875 2.859086162585747 L 4.052799169921875 2.859086162585747 M 4.222885693359375 2.672786162585747 Q 4.249885693359375 2.623886162585747 4.296685693359375 2.596586162585747 Q 4.3434856933593755 2.569286162585747 4.401085693359375 2.569286162585747 Q 4.471285693359375 2.569286162585747 4.521385693359376 2.602586162585747 Q 4.571485693359375 2.635886162585747 4.594285693359375 2.696486162585747 L 4.5450856933593755 2.696486162585747 Q 4.527085693359376 2.653886162585747 4.490185693359376 2.629886162585747 Q 4.453285693359375 2.605886162585747 4.401085693359375 2.605886162585747 Q 4.354885693359376 2.605886162585747 4.317985693359375 2.627486162585747 Q 4.281085693359375 2.649086162585747 4.260085693359375 2.689586162585747 Q 4.2390856933593755 2.730086162585747 4.2390856933593755 2.783486162585747 Q 4.2390856933593755 2.836886162585747 4.260085693359375 2.877086162585747 Q 4.281085693359375 2.917286162585747 4.317985693359375 2.9388861625857468 Q 4.354885693359376 2.960486162585747 4.401085693359375 2.960486162585747 Q 4.453285693359375 2.960486162585747 4.490185693359376 2.9367861625857468 Q 4.527085693359376 2.913086162585747 4.5450856933593755 2.871086162585747 L 4.594285693359375 2.871086162585747 Q 4.571485693359375 2.931086162585747 4.5210856933593755 2.964086162585747 Q 4.470685693359376 2.997086162585747 4.401085693359375 2.997086162585747 Q 4.3434856933593755 2.997086162585747 4.296685693359375 2.969786162585747 Q 4.249885693359375 2.942486162585747 4.222885693359375 2.893886162585747 Q 4.195885693359376 2.845286162585747 4.195885693359376 2.783486162585747 Q 4.195885693359376 2.721686162585747 4.222885693359375 2.672786162585747 M 4.922183349609376 2.893886162585747 L 4.731383349609375 2.893886162585747 L 4.694783349609375 2.993486162585747 L 4.650383349609375 2.993486162585747 L 4.803383349609375 2.579486162585747 L 4.850783349609375 2.579486162585747 L 5.003183349609375 2.993486162585747 L 4.958783349609376 2.993486162585747 L 4.922183349609376 2.893886162585747 M 4.909583349609376 2.859086162585747 L 4.826783349609375 2.632286162585747 L 4.743983349609375 2.859086162585747 L 4.909583349609376 2.859086162585747 M 5.2950698730468755 2.993486162585747 L 5.191269873046875 2.818286162585747 L 5.113869873046875 2.818286162585747 L 5.113869873046875 2.993486162585747 L 5.071869873046875 2.993486162585747 L 5.071869873046875 2.574086162585747 L 5.1978698730468755 2.574086162585747 Q 5.268069873046875 2.574086162585747 5.304369873046875 2.607686162585747 Q 5.340669873046875 2.641286162585747 5.340669873046875 2.695886162585747 Q 5.340669873046875 2.7414861625857467 5.314569873046875 2.773586162585747 Q 5.288469873046875 2.8056861625857468 5.237469873046875 2.815286162585747 L 5.345469873046875 2.993486162585747 L 5.2950698730468755 2.993486162585747 M 5.113869873046875 2.784086162585747 L 5.198469873046875 2.784086162585747 Q 5.247669873046875 2.784086162585747 5.2725698730468755 2.760086162585747 Q 5.297469873046875 2.736086162585747 5.297469873046875 2.695886162585747 Q 5.297469873046875 2.654486162585747 5.273469873046875 2.631986162585747 Q 5.249469873046875 2.609486162585747 5.1978698730468755 2.609486162585747 L 5.113869873046875 2.609486162585747 L 5.113869873046875 2.784086162585747" fill="#af2cff" fill-rule="nonzero"></path></g></g><defs><clipPath id="SvgjsClipPath100791"><path d=" M -1.1000000000000005 -1.3572861625857473 h 9.365964355468751 v 3.4265723251714943 h -9.365964355468751 Z"></path></clipPath></defs></svg>