<svg xmlns="http://www.w3.org/2000/svg" version="1.1" xmlns:xlink="http://www.w3.org/1999/xlink" xmlns:svgjs="http://svgjs.dev/svgjs" viewBox="0 0 10.522836914062498 11.468036914062498"><g transform="matrix(0.8571428571428572,0,0,0.8571428571428572,2.446119559151785,5.034932742745535)"><g transform="matrix(1,0,0,1,0,0)"><g clip-path="url(#SvgjsClipPath6270)"><path d=" M -1.0415397949218748 -3.98305517578125 L 7.727490966796875 -3.98305517578125 L 7.727490966796875 4.7859755859375 L -1.0415397949218748 4.7859755859375 Z" fill="#af2cff" transform="matrix(1,0,0,1,0,0)" fill-rule="nonzero"></path></g></g><g transform="matrix(1,0,0,1,0,0)"><path d=" M 0.031 0.68 Q 0.031 0.673 0.039 0.669 Q 0.047 0.665 0.064 0.662 Q 0.10200000000000001 0.655 0.1165 0.6385000000000001 Q 0.131 0.6220000000000001 0.131 0.5850000000000001 L 0.131 0.135 Q 0.131 0.10100000000000009 0.1165 0.08600000000000008 Q 0.10200000000000001 0.07100000000000006 0.064 0.06400000000000006 Q 0.031 0.05800000000000005 0.031 0.04400000000000004 Q 0.031 0.03300000000000003 0.06 0.03300000000000003 L 0.122 0.03400000000000003 Q 0.137 0.03500000000000003 0.17200000000000001 0.03500000000000003 Q 0.2 0.03500000000000003 0.211 0.03400000000000003 L 0.269 0.03300000000000003 Q 0.298 0.03300000000000003 0.298 0.04400000000000004 Q 0.298 0.05800000000000005 0.265 0.06400000000000006 Q 0.23 0.07000000000000006 0.2205 0.08600000000000008 Q 0.211 0.10200000000000009 0.211 0.135 L 0.211 0.32200000000000006 Q 0.211 0.341 0.216 0.341 Q 0.221 0.341 0.229 0.3355 Q 0.23700000000000002 0.33000000000000007 0.243 0.32300000000000006 L 0.443 0.119 Q 0.458 0.10400000000000009 0.458 0.08900000000000008 Q 0.458 0.08100000000000007 0.453 0.07450000000000001 Q 0.448 0.06800000000000006 0.439 0.06600000000000006 Q 0.422 0.061000000000000054 0.41500000000000004 0.05700000000000005 Q 0.40800000000000003 0.05300000000000005 0.40800000000000003 0.04600000000000004 Q 0.40800000000000003 0.03500000000000003 0.437 0.03500000000000003 L 0.491 0.03500000000000003 Q 0.514 0.03500000000000003 0.619 0.03200000000000003 L 0.653 0.031000000000000028 Q 0.663 0.031000000000000028 0.669 0.03400000000000003 Q 0.675 0.03700000000000003 0.675 0.04200000000000004 Q 0.675 0.05600000000000005 0.642 0.062000000000000055 Q 0.548 0.07900000000000007 0.49 0.128 Q 0.436 0.17300000000000004 0.3935 0.21500000000000002 Q 0.35100000000000003 0.25700000000000006 0.298 0.31500000000000006 Q 0.296 0.31700000000000006 0.296 0.32000000000000006 Q 0.296 0.32600000000000007 0.303 0.3330000000000001 L 0.545 0.5910000000000001 Q 0.58 0.63 0.597 0.6415000000000001 Q 0.614 0.653 0.655 0.662 Q 0.673 0.666 0.6805 0.67 Q 0.6880000000000001 0.674 0.6880000000000001 0.68 Q 0.6880000000000001 0.6910000000000001 0.659 0.6910000000000001 Q 0.619 0.6910000000000001 0.587 0.6880000000000001 Q 0.547 0.686 0.52 0.686 L 0.492 0.686 Q 0.47900000000000004 0.687 0.439 0.687 Q 0.41000000000000003 0.687 0.41000000000000003 0.676 Q 0.41000000000000003 0.669 0.41600000000000004 0.6655000000000001 Q 0.422 0.662 0.437 0.659 Q 0.465 0.652 0.465 0.639 Q 0.465 0.631 0.45 0.6140000000000001 L 0.23800000000000002 0.38000000000000006 Q 0.221 0.36300000000000004 0.215 0.36300000000000004 Q 0.211 0.36300000000000004 0.211 0.37700000000000006 Q 0.211 0.43800000000000006 0.216 0.5760000000000001 Q 0.218 0.6120000000000001 0.2315 0.634 Q 0.245 0.656 0.28 0.662 Q 0.297 0.665 0.305 0.669 Q 0.313 0.673 0.313 0.68 Q 0.313 0.6910000000000001 0.28400000000000003 0.6910000000000001 Q 0.252 0.6910000000000001 0.226 0.687 Q 0.20800000000000002 0.684 0.186 0.684 Q 0.169 0.684 0.1515 0.6855000000000001 Q 0.134 0.687 0.126 0.687 Q 0.088 0.6910000000000001 0.06 0.6910000000000001 Q 0.031 0.6910000000000001 0.031 0.68 M 0.68696923828125 0.6875 Q 0.67896923828125 0.684 0.67896923828125 0.678 Q 0.67896923828125 0.665 0.71196923828125 0.655 Q 0.74096923828125 0.646 0.76196923828125 0.6295000000000001 Q 0.78296923828125 0.6130000000000001 0.79796923828125 0.5780000000000001 Q 0.85096923828125 0.45600000000000007 0.89046923828125 0.35650000000000004 Q 0.92996923828125 0.25700000000000006 0.98496923828125 0.1080000000000001 Q 0.99596923828125 0.07700000000000007 0.9989692382812501 0.050000000000000044 Q 1.00196923828125 0.049000000000000044 1.01346923828125 0.045500000000000096 Q 1.02496923828125 0.04200000000000004 1.03496923828125 0.03500000000000003 Q 1.04296923828125 0.029000000000000026 1.04746923828125 0.017000000000000015 Q 1.05196923828125 0.0050000000000000044 1.05396923828125 0.0010000000000000009 Q 1.05496923828125 0 1.05646923828125 0.000500000000000056 Q 1.05796923828125 0.0010000000000000009 1.0589692382812501 0.0020000000000000018 Q 1.06096923828125 0.007000000000000006 1.06246923828125 0.013000000000000012 Q 1.06396923828125 0.019000000000000017 1.06596923828125 0.02400000000000002 Q 1.13996923828125 0.25700000000000006 1.2439692382812502 0.558 Q 1.2629692382812499 0.6130000000000001 1.28596923828125 0.6325000000000001 Q 1.3089692382812501 0.652 1.3449692382812501 0.658 Q 1.3609692382812502 0.661 1.36946923828125 0.6675000000000001 Q 1.37796923828125 0.674 1.37796923828125 0.681 Q 1.37796923828125 0.6910000000000001 1.3489692382812501 0.6910000000000001 L 1.2949692382812499 0.6890000000000001 Q 1.23896923828125 0.685 1.20996923828125 0.685 L 1.10496923828125 0.686 Q 1.07596923828125 0.686 1.07596923828125 0.674 Q 1.07596923828125 0.668 1.08546923828125 0.6625000000000001 Q 1.0949692382812501 0.657 1.10896923828125 0.655 Q 1.1699692382812499 0.645 1.1699692382812499 0.6100000000000001 Q 1.1699692382812499 0.5780000000000001 1.13096923828125 0.44800000000000006 Q 1.12896923828125 0.44100000000000006 1.12346923828125 0.43900000000000006 Q 1.11796923828125 0.43700000000000006 1.10396923828125 0.43700000000000006 L 0.91496923828125 0.43700000000000006 Q 0.90396923828125 0.43700000000000006 0.89796923828125 0.45500000000000007 Q 0.88696923828125 0.48700000000000004 0.8719692382812501 0.5385000000000001 Q 0.8569692382812499 0.5900000000000001 0.8569692382812499 0.5990000000000001 Q 0.8569692382812499 0.6200000000000001 0.87346923828125 0.635 Q 0.88996923828125 0.65 0.91496923828125 0.656 Q 0.93296923828125 0.661 0.9404692382812501 0.665 Q 0.94796923828125 0.669 0.94796923828125 0.676 Q 0.94796923828125 0.687 0.91896923828125 0.687 Q 0.90096923828125 0.687 0.88896923828125 0.686 L 0.82796923828125 0.685 Q 0.81096923828125 0.685 0.79046923828125 0.6865 Q 0.76996923828125 0.6880000000000001 0.75996923828125 0.6880000000000001 Q 0.73196923828125 0.6910000000000001 0.70796923828125 0.6910000000000001 Q 0.69496923828125 0.6910000000000001 0.68696923828125 0.6875 M 1.09696923828125 0.404 Q 1.10296923828125 0.404 1.10696923828125 0.403 Q 1.11096923828125 0.402 1.11096923828125 0.399 L 1.10896923828125 0.38900000000000007 L 1.03096923828125 0.14500000000000002 Q 1.02496923828125 0.127 1.02196923828125 0.127 Q 1.01996923828125 0.127 1.01396923828125 0.14400000000000002 L 0.92296923828125 0.38900000000000007 L 0.92096923828125 0.3970000000000001 Q 0.92096923828125 0.402 0.9254692382812499 0.403 Q 0.92996923828125 0.404 0.94196923828125 0.404 L 1.09696923828125 0.404 M 1.39198583984375 0.68 Q 1.39198583984375 0.673 1.39998583984375 0.669 Q 1.40798583984375 0.665 1.42498583984375 0.662 Q 1.46498583984375 0.655 1.48398583984375 0.638 Q 1.50298583984375 0.621 1.50298583984375 0.5870000000000001 L 1.50298583984375 0.137 Q 1.50298583984375 0.10100000000000009 1.48748583984375 0.08400000000000007 Q 1.47198583984375 0.06700000000000006 1.43598583984375 0.06400000000000006 Q 1.41998583984375 0.06300000000000006 1.41148583984375 0.05700000000000005 Q 1.40298583984375 0.051000000000000045 1.40298583984375 0.04400000000000004 Q 1.40298583984375 0.03300000000000003 1.43198583984375 0.03300000000000003 Q 1.47698583984375 0.03300000000000003 1.49198583984375 0.03400000000000003 L 1.53598583984375 0.03400000000000003 Q 1.55098583984375 0.03400000000000003 1.57898583984375 0.03200000000000003 Q 1.6299858398437501 0.029000000000000026 1.64698583984375 0.029000000000000026 Q 1.7669858398437501 0.029000000000000026 1.82298583984375 0.0635 Q 1.87898583984375 0.09800000000000009 1.87898583984375 0.17800000000000005 Q 1.87898583984375 0.20900000000000002 1.86848583984375 0.23500000000000004 Q 1.8579858398437499 0.26100000000000007 1.84498583984375 0.274 Q 1.82898583984375 0.29000000000000004 1.81548583984375 0.29850000000000004 Q 1.80198583984375 0.30700000000000005 1.77798583984375 0.31700000000000006 Q 1.77398583984375 0.31900000000000006 1.77398583984375 0.32250000000000006 Q 1.77398583984375 0.32600000000000007 1.77798583984375 0.32700000000000007 Q 1.81998583984375 0.341 1.84848583984375 0.35700000000000004 Q 1.87698583984375 0.37300000000000005 1.89848583984375 0.4055 Q 1.9199858398437502 0.43800000000000006 1.9199858398437502 0.49200000000000005 Q 1.9199858398437502 0.543 1.9039858398437501 0.5755 Q 1.8879858398437501 0.6080000000000001 1.86648583984375 0.6245 Q 1.84498583984375 0.641 1.81598583984375 0.656 Q 1.74798583984375 0.6900000000000001 1.6459858398437501 0.6900000000000001 L 1.6159858398437499 0.6890000000000001 Q 1.58898583984375 0.686 1.55098583984375 0.686 Q 1.52598583984375 0.686 1.48998583984375 0.6880000000000001 Q 1.46198583984375 0.6910000000000001 1.42098583984375 0.6910000000000001 Q 1.39198583984375 0.6910000000000001 1.39198583984375 0.68 M 1.74798583984375 0.28600000000000003 Q 1.76398583984375 0.277 1.77848583984375 0.25300000000000006 Q 1.79298583984375 0.22900000000000004 1.79298583984375 0.19100000000000006 Q 1.79298583984375 0.137 1.76148583984375 0.09800000000000009 Q 1.72998583984375 0.05900000000000005 1.64698583984375 0.05900000000000005 Q 1.60798583984375 0.05900000000000005 1.59448583984375 0.0695 Q 1.58098583984375 0.08000000000000007 1.58098583984375 0.10400000000000009 L 1.58098583984375 0.278 Q 1.58098583984375 0.31500000000000006 1.62698583984375 0.31500000000000006 Q 1.69598583984375 0.31500000000000006 1.74798583984375 0.28600000000000003 M 1.74198583984375 0.629 Q 1.77998583984375 0.6090000000000001 1.80298583984375 0.5740000000000001 Q 1.82598583984375 0.539 1.82598583984375 0.49700000000000005 Q 1.82598583984375 0.44600000000000006 1.8034858398437499 0.41500000000000004 Q 1.78098583984375 0.38400000000000006 1.75198583984375 0.36800000000000005 Q 1.70698583984375 0.343 1.6379858398437501 0.343 Q 1.60898583984375 0.343 1.59498583984375 0.35450000000000004 Q 1.58098583984375 0.36600000000000005 1.58098583984375 0.37900000000000006 L 1.58098583984375 0.5780000000000001 Q 1.58098583984375 0.6180000000000001 1.59998583984375 0.6335000000000001 Q 1.61898583984375 0.649 1.65998583984375 0.649 Q 1.70398583984375 0.649 1.74198583984375 0.629 M 1.9659609375 0.6875 Q 1.9579609375 0.684 1.9579609375 0.678 Q 1.9579609375 0.665 1.9909609375 0.655 Q 2.0199609375 0.646 2.0409609375 0.6295000000000001 Q 2.0619609375 0.6130000000000001 2.0769609375 0.5780000000000001 Q 2.1299609375 0.45600000000000007 2.1694609375 0.35650000000000004 Q 2.2089609375 0.25700000000000006 2.2639609375 0.1080000000000001 Q 2.2749609375 0.07700000000000007 2.2779609375 0.050000000000000044 Q 2.2809609375 0.049000000000000044 2.2924609375 0.045500000000000096 Q 2.3039609375 0.04200000000000004 2.3139609375 0.03500000000000003 Q 2.3219609375 0.029000000000000026 2.3264609375 0.017000000000000015 Q 2.3309609375 0.0050000000000000044 2.3329609375 0.0010000000000000009 Q 2.3339609375 0 2.3354609375 0.000500000000000056 Q 2.3369609375 0.0010000000000000009 2.3379609375 0.0020000000000000018 Q 2.3399609375 0.007000000000000006 2.3414609375 0.013000000000000012 Q 2.3429609375 0.019000000000000017 2.3449609375 0.02400000000000002 Q 2.4189609375 0.25700000000000006 2.5229609375 0.558 Q 2.5419609375 0.6130000000000001 2.5649609375 0.6325000000000001 Q 2.5879609375 0.652 2.6239609375 0.658 Q 2.6399609375 0.661 2.6484609375 0.6675000000000001 Q 2.6569609375 0.674 2.6569609375 0.681 Q 2.6569609375 0.6910000000000001 2.6279609375 0.6910000000000001 L 2.5739609375 0.6890000000000001 Q 2.5179609375 0.685 2.4889609375 0.685 L 2.3839609375 0.686 Q 2.3549609375 0.686 2.3549609375 0.674 Q 2.3549609375 0.668 2.3644609375 0.6625000000000001 Q 2.3739609375 0.657 2.3879609375 0.655 Q 2.4489609375 0.645 2.4489609375 0.6100000000000001 Q 2.4489609375 0.5780000000000001 2.4099609375 0.44800000000000006 Q 2.4079609375 0.44100000000000006 2.4024609375 0.43900000000000006 Q 2.3969609375 0.43700000000000006 2.3829609375 0.43700000000000006 L 2.1939609375 0.43700000000000006 Q 2.1829609375 0.43700000000000006 2.1769609375 0.45500000000000007 Q 2.1659609375 0.48700000000000004 2.1509609375 0.5385000000000001 Q 2.1359609375 0.5900000000000001 2.1359609375 0.5990000000000001 Q 2.1359609375 0.6200000000000001 2.1524609375 0.635 Q 2.1689609375 0.65 2.1939609375 0.656 Q 2.2119609375 0.661 2.2194609375 0.665 Q 2.2269609375 0.669 2.2269609375 0.676 Q 2.2269609375 0.687 2.1979609375 0.687 Q 2.1799609375 0.687 2.1679609375 0.686 L 2.1069609375 0.685 Q 2.0899609375 0.685 2.0694609375 0.6865 Q 2.0489609375 0.6880000000000001 2.0389609375 0.6880000000000001 Q 2.0109609375 0.6910000000000001 1.9869609375 0.6910000000000001 Q 1.9739609375 0.6910000000000001 1.9659609375 0.6875 M 2.3759609375 0.404 Q 2.3819609375 0.404 2.3859609375 0.403 Q 2.3899609375 0.402 2.3899609375 0.399 L 2.3879609375 0.38900000000000007 L 2.3099609375 0.14500000000000002 Q 2.3039609375 0.127 2.3009609375 0.127 Q 2.2989609375 0.127 2.2929609375 0.14400000000000002 L 2.2019609375 0.38900000000000007 L 2.1999609375 0.3970000000000001 Q 2.1999609375 0.402 2.2044609375 0.403 Q 2.2089609375 0.404 2.2209609375 0.404 L 2.3759609375 0.404 M 3.17698974609375 0.6910000000000001 Q 3.06698974609375 0.686 3.01498974609375 0.686 Q 2.99798974609375 0.686 2.96998974609375 0.6880000000000001 Q 2.94798974609375 0.6910000000000001 2.90998974609375 0.6910000000000001 Q 2.88098974609375 0.6910000000000001 2.88098974609375 0.678 Q 2.88098974609375 0.67 2.88698974609375 0.668 Q 2.89298974609375 0.666 2.91398974609375 0.662 Q 2.95198974609375 0.655 2.96648974609375 0.639 Q 2.98098974609375 0.623 2.98098974609375 0.5870000000000001 L 2.98098974609375 0.137 Q 2.98098974609375 0.10200000000000009 2.96648974609375 0.08650000000000002 Q 2.95198974609375 0.07100000000000006 2.91398974609375 0.06400000000000006 Q 2.89498974609375 0.061000000000000054 2.88798974609375 0.057499999999999996 Q 2.88098974609375 0.05400000000000005 2.88098974609375 0.04600000000000004 Q 2.88098974609375 0.03300000000000003 2.90998974609375 0.03300000000000003 L 2.96698974609375 0.03400000000000003 Q 2.98198974609375 0.03500000000000003 3.02098974609375 0.03500000000000003 Q 3.06198974609375 0.03500000000000003 3.1239897460937502 0.030000000000000027 Q 3.14498974609375 0.029000000000000026 3.16248974609375 0.028000000000000025 Q 3.17998974609375 0.027000000000000024 3.19198974609375 0.027000000000000024 Q 3.32198974609375 0.027000000000000024 3.40698974609375 0.0685 Q 3.49198974609375 0.10999999999999999 3.53148974609375 0.1815 Q 3.57098974609375 0.25300000000000006 3.57098974609375 0.34400000000000003 Q 3.57098974609375 0.43800000000000006 3.52398974609375 0.5185000000000001 Q 3.47698974609375 0.5990000000000001 3.39698974609375 0.646 Q 3.31698974609375 0.6930000000000001 3.22298974609375 0.6930000000000001 L 3.17698974609375 0.6910000000000001 M 3.34848974609375 0.6200000000000001 Q 3.40898974609375 0.5820000000000001 3.44248974609375 0.5145000000000001 Q 3.47598974609375 0.44700000000000006 3.47598974609375 0.36100000000000004 Q 3.47598974609375 0.2690000000000001 3.43598974609375 0.20000000000000007 Q 3.39598974609375 0.131 3.33148974609375 0.09450000000000003 Q 3.26698974609375 0.05800000000000005 3.19698974609375 0.05800000000000005 Q 3.14398974609375 0.05800000000000005 3.11748974609375 0.061000000000000054 Q 3.09098974609375 0.06400000000000006 3.07598974609375 0.07700000000000007 Q 3.06098974609375 0.09000000000000008 3.06098974609375 0.119 L 3.06098974609375 0.5650000000000001 Q 3.06098974609375 0.6200000000000001 3.10148974609375 0.639 Q 3.14198974609375 0.658 3.21098974609375 0.658 Q 3.28798974609375 0.658 3.34848974609375 0.6200000000000001 M 3.62501806640625 0.68 Q 3.62501806640625 0.673 3.63301806640625 0.669 Q 3.64101806640625 0.665 3.65801806640625 0.662 Q 3.69801806640625 0.655 3.71701806640625 0.6385000000000001 Q 3.73601806640625 0.6220000000000001 3.73601806640625 0.5880000000000001 L 3.73601806640625 0.136 Q 3.73601806640625 0.10100000000000009 3.72151806640625 0.08600000000000008 Q 3.70701806640625 0.07100000000000006 3.66901806640625 0.06400000000000006 Q 3.63601806640625 0.05800000000000005 3.63601806640625 0.04400000000000004 Q 3.63601806640625 0.03300000000000003 3.66501806640625 0.03300000000000003 Q 3.69301806640625 0.03300000000000003 3.72901806640625 0.03500000000000003 L 3.78201806640625 0.03600000000000003 L 3.83001806640625 0.03500000000000003 Q 3.8620180664062502 0.03300000000000003 3.89101806640625 0.03300000000000003 Q 3.92001806640625 0.03300000000000003 3.92001806640625 0.04400000000000004 Q 3.92001806640625 0.05800000000000005 3.88701806640625 0.06400000000000006 Q 3.84801806640625 0.07100000000000006 3.83201806640625 0.08650000000000002 Q 3.81601806640625 0.10200000000000009 3.81601806640625 0.136 L 3.81601806640625 0.5880000000000001 Q 3.81601806640625 0.6220000000000001 3.83551806640625 0.6385000000000001 Q 3.85501806640625 0.655 3.89501806640625 0.662 Q 3.91201806640625 0.665 3.92001806640625 0.669 Q 3.92801806640625 0.673 3.92801806640625 0.68 Q 3.92801806640625 0.6910000000000001 3.89901806640625 0.6910000000000001 Q 3.8620180664062502 0.6910000000000001 3.83501806640625 0.6880000000000001 Q 3.80301806640625 0.686 3.78201806640625 0.686 Q 3.75701806640625 0.686 3.72101806640625 0.6880000000000001 Q 3.69101806640625 0.6910000000000001 3.65401806640625 0.6910000000000001 Q 3.62501806640625 0.6910000000000001 3.62501806640625 0.68 M 3.952044921875 0.6875 Q 3.944044921875 0.684 3.944044921875 0.678 Q 3.944044921875 0.665 3.977044921875 0.655 Q 4.006044921875 0.646 4.027044921875 0.6295000000000001 Q 4.048044921875 0.6130000000000001 4.063044921875 0.5780000000000001 Q 4.116044921875 0.45600000000000007 4.155544921875 0.35650000000000004 Q 4.195044921875 0.25700000000000006 4.250044921875 0.1080000000000001 Q 4.261044921875 0.07700000000000007 4.264044921875 0.050000000000000044 Q 4.267044921875 0.049000000000000044 4.278544921875 0.045500000000000096 Q 4.290044921875 0.04200000000000004 4.300044921875 0.03500000000000003 Q 4.308044921875 0.029000000000000026 4.312544921875 0.017000000000000015 Q 4.317044921875 0.0050000000000000044 4.319044921875 0.0010000000000000009 Q 4.320044921875 0 4.321544921875 0.000500000000000056 Q 4.323044921875 0.0010000000000000009 4.324044921875 0.0020000000000000018 Q 4.326044921875 0.007000000000000006 4.327544921875 0.013000000000000012 Q 4.329044921875 0.019000000000000017 4.331044921875 0.02400000000000002 Q 4.405044921875 0.25700000000000006 4.509044921875 0.558 Q 4.528044921875 0.6130000000000001 4.551044921875 0.6325000000000001 Q 4.574044921875 0.652 4.610044921875 0.658 Q 4.626044921875 0.661 4.634544921875 0.6675000000000001 Q 4.643044921875 0.674 4.643044921875 0.681 Q 4.643044921875 0.6910000000000001 4.614044921875 0.6910000000000001 L 4.560044921875 0.6890000000000001 Q 4.504044921875 0.685 4.475044921875 0.685 L 4.370044921875 0.686 Q 4.341044921875 0.686 4.341044921875 0.674 Q 4.341044921875 0.668 4.350544921875 0.6625000000000001 Q 4.360044921875 0.657 4.374044921875 0.655 Q 4.435044921875 0.645 4.435044921875 0.6100000000000001 Q 4.435044921875 0.5780000000000001 4.396044921875 0.44800000000000006 Q 4.394044921875 0.44100000000000006 4.388544921875 0.43900000000000006 Q 4.383044921875 0.43700000000000006 4.369044921875 0.43700000000000006 L 4.180044921875 0.43700000000000006 Q 4.169044921875 0.43700000000000006 4.163044921875 0.45500000000000007 Q 4.152044921875 0.48700000000000004 4.137044921875 0.5385000000000001 Q 4.122044921875 0.5900000000000001 4.122044921875 0.5990000000000001 Q 4.122044921875 0.6200000000000001 4.138544921875 0.635 Q 4.155044921875 0.65 4.180044921875 0.656 Q 4.198044921875 0.661 4.205544921875 0.665 Q 4.213044921875 0.669 4.213044921875 0.676 Q 4.213044921875 0.687 4.184044921875 0.687 Q 4.166044921875 0.687 4.154044921875 0.686 L 4.093044921875 0.685 Q 4.076044921875 0.685 4.055544921875 0.6865 Q 4.035044921875 0.6880000000000001 4.025044921875 0.6880000000000001 Q 3.997044921875 0.6910000000000001 3.973044921875 0.6910000000000001 Q 3.960044921875 0.6910000000000001 3.952044921875 0.6875 M 4.362044921875 0.404 Q 4.368044921875 0.404 4.372044921875 0.403 Q 4.376044921875 0.402 4.376044921875 0.399 L 4.374044921875 0.38900000000000007 L 4.296044921875 0.14500000000000002 Q 4.290044921875 0.127 4.287044921875 0.127 Q 4.285044921875 0.127 4.279044921875 0.14400000000000002 L 4.188044921875 0.38900000000000007 L 4.186044921875 0.3970000000000001 Q 4.186044921875 0.402 4.190544921875 0.403 Q 4.195044921875 0.404 4.207044921875 0.404 L 4.362044921875 0.404 M 4.6725615234375 0.6875 Q 4.6650615234375 0.684 4.6650615234375 0.679 Q 4.6650615234375 0.667 4.6870615234375 0.662 Q 4.7280615234375 0.654 4.7480615234375 0.638 Q 4.7680615234375 0.6220000000000001 4.7680615234375 0.5900000000000001 L 4.7680615234375 0.126 Q 4.7680615234375 0.10200000000000009 4.7630615234375 0.09050000000000002 Q 4.7580615234375 0.07900000000000007 4.7465615234375 0.07400000000000007 Q 4.7350615234375 0.06900000000000006 4.7070615234375 0.06400000000000006 Q 4.6740615234375 0.05800000000000005 4.6740615234375 0.04400000000000004 Q 4.6740615234375 0.03300000000000003 4.7030615234375 0.03300000000000003 Q 4.7330615234375 0.03300000000000003 4.7650615234375 0.03500000000000003 L 4.8150615234375 0.03600000000000003 L 4.8750615234375 0.03500000000000003 Q 4.9130615234375 0.03300000000000003 4.9410615234375 0.03300000000000003 Q 4.9700615234375 0.03300000000000003 4.9700615234375 0.04400000000000004 Q 4.9700615234375 0.05800000000000005 4.9370615234375 0.06400000000000006 Q 4.8900615234375 0.07300000000000006 4.8690615234375 0.08300000000000007 Q 4.8480615234375 0.09300000000000008 4.8480615234375 0.119 L 4.8480615234375 0.5900000000000001 Q 4.8480615234375 0.623 4.8630615234375 0.637 Q 4.8780615234375 0.651 4.9250615234375 0.651 L 5.0490615234375 0.651 Q 5.0740615234375 0.651 5.0950615234375 0.643 Q 5.1160615234375 0.635 5.1270615234375 0.625 Q 5.1470615234375 0.6080000000000001 5.1565615234374995 0.5945 Q 5.1660615234375005 0.5810000000000001 5.1790615234375 0.554 Q 5.1830615234375 0.544 5.1890615234375 0.534 Q 5.1950615234375 0.524 5.2010615234375 0.524 Q 5.2070615234375 0.524 5.2100615234375 0.5295000000000001 Q 5.2130615234375 0.535 5.2130615234375 0.542 L 5.2120615234375 0.547 Q 5.1990615234375 0.5950000000000001 5.1935615234375 0.6205 Q 5.1880615234375 0.646 5.1850615234375 0.674 Q 5.1830615234375 0.6910000000000001 5.1710615234375 0.6910000000000001 Q 5.0640615234375 0.6910000000000001 4.9740615234375 0.6880000000000001 Q 4.8720615234375 0.686 4.8280615234375 0.686 Q 4.7970615234375 0.686 4.7520615234375 0.6880000000000001 Q 4.7070615234375 0.6900000000000001 4.6930615234375 0.6910000000000001 Q 4.6800615234375 0.6910000000000001 4.6725615234375 0.6875 M 5.2565458984375 0.6875 Q 5.2490458984375 0.684 5.2490458984375 0.679 Q 5.2490458984375 0.667 5.2710458984375 0.662 Q 5.3120458984375 0.654 5.3320458984375 0.638 Q 5.3520458984375 0.6220000000000001 5.3520458984375 0.5900000000000001 L 5.3520458984375 0.126 Q 5.3520458984375 0.10200000000000009 5.3470458984375 0.09050000000000002 Q 5.3420458984375 0.07900000000000007 5.3305458984375 0.07400000000000007 Q 5.3190458984375 0.06900000000000006 5.2910458984375 0.06400000000000006 Q 5.2580458984375 0.05800000000000005 5.2580458984375 0.04400000000000004 Q 5.2580458984375 0.03300000000000003 5.2870458984375 0.03300000000000003 Q 5.3170458984375 0.03300000000000003 5.3490458984375 0.03500000000000003 L 5.3990458984375 0.03600000000000003 L 5.4590458984375 0.03500000000000003 Q 5.4970458984375 0.03300000000000003 5.5250458984375 0.03300000000000003 Q 5.5540458984375 0.03300000000000003 5.5540458984375 0.04400000000000004 Q 5.5540458984375 0.05800000000000005 5.5210458984375 0.06400000000000006 Q 5.4740458984375 0.07300000000000006 5.4530458984375 0.08300000000000007 Q 5.4320458984375 0.09300000000000008 5.4320458984375 0.119 L 5.4320458984375 0.5900000000000001 Q 5.4320458984375 0.623 5.4470458984375 0.637 Q 5.4620458984375 0.651 5.5090458984375 0.651 L 5.6330458984375 0.651 Q 5.6580458984375 0.651 5.6790458984375 0.643 Q 5.7000458984375 0.635 5.7110458984375 0.625 Q 5.7310458984375 0.6080000000000001 5.7405458984374995 0.5945 Q 5.7500458984375005 0.5810000000000001 5.7630458984375 0.554 Q 5.7670458984375 0.544 5.7730458984375 0.534 Q 5.7790458984375 0.524 5.7850458984375 0.524 Q 5.7910458984375 0.524 5.7940458984375 0.5295000000000001 Q 5.7970458984375 0.535 5.7970458984375 0.542 L 5.7960458984375 0.547 Q 5.7830458984375 0.5950000000000001 5.7775458984375 0.6205 Q 5.7720458984375 0.646 5.7690458984375 0.674 Q 5.7670458984375 0.6910000000000001 5.7550458984375 0.6910000000000001 Q 5.6480458984375 0.6910000000000001 5.5580458984375 0.6880000000000001 Q 5.4560458984375 0.686 5.4120458984375 0.686 Q 5.3810458984375 0.686 5.3360458984375 0.6880000000000001 Q 5.2910458984375 0.6900000000000001 5.2770458984375 0.6910000000000001 Q 5.2640458984375 0.6910000000000001 5.2565458984375 0.6875 M 6.0185302734375 0.6585000000000001 Q 5.9420302734375 0.617 5.8965302734375 0.542 Q 5.8510302734375 0.4670000000000001 5.8510302734375 0.37100000000000005 Q 5.8510302734375 0.279 5.8910302734375 0.19900000000000007 Q 5.9310302734375 0.119 6.0080302734375 0.07050000000000001 Q 6.0850302734375 0.02200000000000002 6.1920302734375 0.02200000000000002 Q 6.2800302734375 0.02200000000000002 6.3565302734374995 0.0635 Q 6.4330302734375 0.1050000000000001 6.4785302734375 0.18000000000000005 Q 6.5240302734375 0.25500000000000006 6.5240302734375 0.35100000000000003 Q 6.5240302734375 0.44300000000000006 6.4840302734375 0.523 Q 6.4440302734375 0.6030000000000001 6.3670302734375 0.6515000000000001 Q 6.2900302734375 0.7000000000000001 6.1830302734375 0.7000000000000001 Q 6.0950302734375 0.7000000000000001 6.0185302734375 0.6585000000000001 M 6.3690302734375 0.5905 Q 6.4280302734375 0.521 6.4280302734375 0.4 Q 6.4280302734375 0.30500000000000005 6.3990302734375 0.22900000000000004 Q 6.3700302734375 0.15300000000000002 6.3135302734375 0.10850000000000004 Q 6.2570302734375 0.06400000000000006 6.1760302734375 0.06400000000000006 Q 6.0650302734375 0.06400000000000006 6.0060302734375 0.13250000000000006 Q 5.9470302734375 0.20100000000000007 5.9470302734375 0.32100000000000006 Q 5.9470302734375 0.41600000000000004 5.9755302734375 0.49300000000000005 Q 6.0040302734375 0.5700000000000001 6.0605302734375 0.615 Q 6.1170302734375 0.66 6.1980302734375 0.66 Q 6.3100302734375 0.66 6.3690302734375 0.5905" fill="#ffffff" fill-rule="nonzero"></path></g><g transform="matrix(1,0,0,1,0,0)"><path d=" M 1.957918017578125 5.560515380859375 L 1.723918017578125 5.560515380859375 L 1.6735180175781252 5.672715380859374 L 1.6273180175781252 5.672715380859374 L 1.8193180175781252 5.2527153808593745 L 1.8631180175781252 5.2527153808593745 L 2.055118017578125 5.672715380859374 L 2.0083180175781252 5.672715380859374 L 1.957918017578125 5.560515380859375 M 1.941718017578125 5.524515380859374 L 1.840918017578125 5.298915380859374 L 1.740118017578125 5.524515380859374 L 1.941718017578125 5.524515380859374 M 2.359606005859375 5.374815380859374 Q 2.395606005859375 5.394915380859374 2.416006005859375 5.431515380859374 Q 2.436406005859375 5.468115380859374 2.436406005859375 5.5149153808593745 Q 2.436406005859375 5.561715380859375 2.416006005859375 5.598315380859375 Q 2.395606005859375 5.634915380859375 2.359606005859375 5.655315380859374 Q 2.323606005859375 5.6757153808593745 2.279206005859375 5.6757153808593745 Q 2.239606005859375 5.6757153808593745 2.208106005859375 5.658915380859375 Q 2.1766060058593752 5.642115380859375 2.157406005859375 5.610315380859374 L 2.157406005859375 5.672715380859374 L 2.116606005859375 5.672715380859374 L 2.116606005859375 5.227515380859375 L 2.159206005859375 5.227515380859375 L 2.159206005859375 5.417115380859374 Q 2.179006005859375 5.386515380859374 2.209906005859375 5.370615380859374 Q 2.2408060058593753 5.354715380859375 2.279206005859375 5.354715380859375 Q 2.323606005859375 5.354715380859375 2.359606005859375 5.374815380859374 M 2.336206005859375 5.622615380859375 Q 2.363206005859375 5.607315380859374 2.378506005859375 5.579115380859374 Q 2.393806005859375 5.550915380859374 2.393806005859375 5.5149153808593745 Q 2.393806005859375 5.478915380859375 2.378506005859375 5.450715380859375 Q 2.363206005859375 5.422515380859375 2.336206005859375 5.407215380859374 Q 2.309206005859375 5.391915380859374 2.276206005859375 5.391915380859374 Q 2.242606005859375 5.391915380859374 2.215906005859375 5.407215380859374 Q 2.189206005859375 5.422515380859375 2.173906005859375 5.450715380859375 Q 2.158606005859375 5.478915380859375 2.158606005859375 5.5149153808593745 Q 2.158606005859375 5.550915380859374 2.173906005859375 5.579115380859374 Q 2.189206005859375 5.607315380859374 2.215906005859375 5.622615380859375 Q 2.242606005859375 5.637915380859375 2.276206005859375 5.637915380859375 Q 2.309206005859375 5.637915380859375 2.336206005859375 5.622615380859375 M 2.571093115234375 5.655015380859375 Q 2.534493115234375 5.634315380859374 2.513493115234375 5.597715380859374 Q 2.492493115234375 5.561115380859374 2.492493115234375 5.5149153808593745 Q 2.492493115234375 5.468715380859375 2.513493115234375 5.432115380859375 Q 2.534493115234375 5.395515380859375 2.571093115234375 5.375115380859374 Q 2.6076931152343747 5.354715380859375 2.653293115234375 5.354715380859375 Q 2.698893115234375 5.354715380859375 2.735493115234375 5.375115380859374 Q 2.772093115234375 5.395515380859375 2.792793115234375 5.432115380859375 Q 2.8134931152343747 5.468715380859375 2.8134931152343747 5.5149153808593745 Q 2.8134931152343747 5.561115380859374 2.792793115234375 5.597715380859374 Q 2.772093115234375 5.634315380859374 2.735493115234375 5.655015380859375 Q 2.698893115234375 5.6757153808593745 2.653293115234375 5.6757153808593745 Q 2.6076931152343747 5.6757153808593745 2.571093115234375 5.655015380859375 M 2.713593115234375 5.622615380859375 Q 2.740293115234375 5.607315380859374 2.755293115234375 5.579115380859374 Q 2.770293115234375 5.550915380859374 2.770293115234375 5.5149153808593745 Q 2.770293115234375 5.478915380859375 2.755293115234375 5.450715380859375 Q 2.740293115234375 5.422515380859375 2.713593115234375 5.407215380859374 Q 2.686893115234375 5.391915380859374 2.653293115234375 5.391915380859374 Q 2.6196931152343748 5.391915380859374 2.592993115234375 5.407215380859374 Q 2.566293115234375 5.422515380859375 2.550993115234375 5.450715380859375 Q 2.535693115234375 5.478915380859375 2.535693115234375 5.5149153808593745 Q 2.535693115234375 5.550915380859374 2.550993115234375 5.579115380859374 Q 2.566293115234375 5.607315380859374 2.592993115234375 5.622615380859375 Q 2.6196931152343748 5.637915380859375 2.653293115234375 5.637915380859375 Q 2.686893115234375 5.637915380859375 2.713593115234375 5.622615380859375 M 3.1858016113281247 5.3571153808593746 L 3.1858016113281247 5.672715380859374 L 3.1450016113281247 5.672715380859374 L 3.1450016113281247 5.615115380859375 Q 3.128201611328125 5.643915380859374 3.098801611328125 5.659815380859374 Q 3.0694016113281246 5.6757153808593745 3.031601611328125 5.6757153808593745 Q 2.969801611328125 5.6757153808593745 2.9341016113281246 5.641215380859374 Q 2.898401611328125 5.606715380859375 2.898401611328125 5.540115380859374 L 2.898401611328125 5.3571153808593746 L 2.941001611328125 5.3571153808593746 L 2.941001611328125 5.535915380859374 Q 2.941001611328125 5.585715380859375 2.965601611328125 5.611515380859374 Q 2.990201611328125 5.637315380859374 3.0358016113281248 5.637315380859374 Q 3.0856016113281246 5.637315380859374 3.114401611328125 5.607015380859375 Q 3.143201611328125 5.576715380859374 3.143201611328125 5.522715380859374 L 3.143201611328125 5.3571153808593746 L 3.1858016113281247 5.3571153808593746 M 3.549085791015625 5.374815380859374 Q 3.585085791015625 5.394915380859374 3.605485791015625 5.431515380859374 Q 3.625885791015625 5.468115380859374 3.625885791015625 5.5149153808593745 Q 3.625885791015625 5.561715380859375 3.605485791015625 5.598315380859375 Q 3.585085791015625 5.634915380859375 3.549085791015625 5.655315380859374 Q 3.513085791015625 5.6757153808593745 3.468685791015625 5.6757153808593745 Q 3.4290857910156247 5.6757153808593745 3.397585791015625 5.658915380859375 Q 3.366085791015625 5.642115380859375 3.346885791015625 5.610315380859374 L 3.346885791015625 5.672715380859374 L 3.306085791015625 5.672715380859374 L 3.306085791015625 5.227515380859375 L 3.3486857910156247 5.227515380859375 L 3.3486857910156247 5.417115380859374 Q 3.3684857910156247 5.386515380859374 3.3993857910156247 5.370615380859374 Q 3.430285791015625 5.354715380859375 3.468685791015625 5.354715380859375 Q 3.513085791015625 5.354715380859375 3.549085791015625 5.374815380859374 M 3.5256857910156247 5.622615380859375 Q 3.552685791015625 5.607315380859374 3.5679857910156247 5.579115380859374 Q 3.5832857910156246 5.550915380859374 3.5832857910156246 5.5149153808593745 Q 3.5832857910156246 5.478915380859375 3.5679857910156247 5.450715380859375 Q 3.552685791015625 5.422515380859375 3.5256857910156247 5.407215380859374 Q 3.4986857910156246 5.391915380859374 3.4656857910156247 5.391915380859374 Q 3.432085791015625 5.391915380859374 3.405385791015625 5.407215380859374 Q 3.378685791015625 5.422515380859375 3.3633857910156246 5.450715380859375 Q 3.3480857910156248 5.478915380859375 3.3480857910156248 5.5149153808593745 Q 3.3480857910156248 5.550915380859374 3.3633857910156246 5.579115380859374 Q 3.378685791015625 5.607315380859374 3.405385791015625 5.622615380859375 Q 3.432085791015625 5.637915380859375 3.4656857910156247 5.637915380859375 Q 3.4986857910156246 5.637915380859375 3.5256857910156247 5.622615380859375 M 3.9171784667968748 5.385615380859375 Q 3.9501784667968747 5.416515380859375 3.9501784667968747 5.477115380859375 L 3.9501784667968747 5.672715380859374 L 3.9093784667968747 5.672715380859374 L 3.9093784667968747 5.6235153808593745 Q 3.8949784667968745 5.648115380859374 3.8670784667968747 5.661915380859375 Q 3.8391784667968745 5.6757153808593745 3.8007784667968747 5.6757153808593745 Q 3.7479784667968747 5.6757153808593745 3.7167784667968746 5.650515380859375 Q 3.6855784667968745 5.625315380859375 3.6855784667968745 5.5839153808593744 Q 3.6855784667968745 5.543715380859375 3.7146784667968746 5.5191153808593745 Q 3.7437784667968748 5.494515380859374 3.8073784667968744 5.494515380859374 L 3.9075784667968745 5.494515380859374 L 3.9075784667968745 5.475315380859374 Q 3.9075784667968745 5.4345153808593745 3.8847784667968748 5.413215380859374 Q 3.8619784667968746 5.391915380859374 3.8181784667968746 5.391915380859374 Q 3.7881784667968748 5.391915380859374 3.7605784667968747 5.401815380859374 Q 3.7329784667968746 5.411715380859374 3.7131784667968746 5.429115380859375 L 3.6939784667968745 5.397315380859374 Q 3.7179784667968745 5.376915380859375 3.751578466796875 5.365815380859375 Q 3.7851784667968746 5.354715380859375 3.8223784667968745 5.354715380859375 Q 3.8841784667968744 5.354715380859375 3.9171784667968748 5.385615380859375 M 3.8691784667968747 5.625615380859374 Q 3.8949784667968745 5.609115380859374 3.9075784667968745 5.577915380859374 L 3.9075784667968745 5.526315380859375 L 3.8085784667968747 5.526315380859375 Q 3.7275784667968748 5.526315380859375 3.7275784667968748 5.582715380859375 Q 3.7275784667968748 5.610315380859374 3.7485784667968747 5.6262153808593744 Q 3.7695784667968746 5.642115380859375 3.8073784667968744 5.642115380859375 Q 3.8433784667968744 5.642115380859375 3.8691784667968747 5.625615380859374 M 4.115203076171874 5.655315380859374 Q 4.078303076171875 5.634915380859375 4.057303076171875 5.5980153808593744 Q 4.036303076171874 5.561115380859374 4.036303076171874 5.5149153808593745 Q 4.036303076171874 5.468715380859375 4.057303076171875 5.432115380859375 Q 4.078303076171875 5.395515380859375 4.115203076171874 5.375115380859374 Q 4.1521030761718745 5.354715380859375 4.198903076171875 5.354715380859375 Q 4.239703076171875 5.354715380859375 4.271803076171874 5.370615380859374 Q 4.303903076171875 5.386515380859374 4.322503076171874 5.417115380859374 L 4.290703076171875 5.4387153808593744 Q 4.275103076171875 5.415315380859375 4.251103076171875 5.4036153808593745 Q 4.227103076171875 5.391915380859374 4.198903076171875 5.391915380859374 Q 4.164703076171874 5.391915380859374 4.137403076171875 5.407215380859374 Q 4.110103076171875 5.422515380859375 4.094803076171875 5.450715380859375 Q 4.079503076171875 5.478915380859375 4.079503076171875 5.5149153808593745 Q 4.079503076171875 5.5515153808593745 4.094803076171875 5.579415380859374 Q 4.110103076171875 5.607315380859374 4.137403076171875 5.622615380859375 Q 4.164703076171874 5.637915380859375 4.198903076171875 5.637915380859375 Q 4.227103076171875 5.637915380859375 4.251103076171875 5.626515380859375 Q 4.275103076171875 5.615115380859375 4.290703076171875 5.591715380859374 L 4.322503076171874 5.613315380859374 Q 4.303903076171875 5.643915380859374 4.271503076171875 5.659815380859374 Q 4.239103076171875 5.6757153808593745 4.198903076171875 5.6757153808593745 Q 4.1521030761718745 5.6757153808593745 4.115203076171874 5.655315380859374 M 4.611996044921875 5.385615380859375 Q 4.644996044921875 5.416515380859375 4.644996044921875 5.477115380859375 L 4.644996044921875 5.672715380859374 L 4.604196044921875 5.672715380859374 L 4.604196044921875 5.6235153808593745 Q 4.589796044921875 5.648115380859374 4.561896044921875 5.661915380859375 Q 4.533996044921875 5.6757153808593745 4.495596044921875 5.6757153808593745 Q 4.442796044921875 5.6757153808593745 4.4115960449218745 5.650515380859375 Q 4.380396044921875 5.625315380859375 4.380396044921875 5.5839153808593744 Q 4.380396044921875 5.543715380859375 4.409496044921875 5.5191153808593745 Q 4.438596044921875 5.494515380859374 4.502196044921875 5.494515380859374 L 4.602396044921875 5.494515380859374 L 4.602396044921875 5.475315380859374 Q 4.602396044921875 5.4345153808593745 4.579596044921875 5.413215380859374 Q 4.5567960449218745 5.391915380859374 4.512996044921875 5.391915380859374 Q 4.482996044921875 5.391915380859374 4.455396044921875 5.401815380859374 Q 4.427796044921875 5.411715380859374 4.407996044921875 5.429115380859375 L 4.388796044921875 5.397315380859374 Q 4.412796044921875 5.376915380859375 4.446396044921875 5.365815380859375 Q 4.479996044921875 5.354715380859375 4.517196044921875 5.354715380859375 Q 4.578996044921875 5.354715380859375 4.611996044921875 5.385615380859375 M 4.563996044921875 5.625615380859374 Q 4.589796044921875 5.609115380859374 4.602396044921875 5.577915380859374 L 4.602396044921875 5.526315380859375 L 4.503396044921875 5.526315380859375 Q 4.422396044921875 5.526315380859375 4.422396044921875 5.582715380859375 Q 4.422396044921875 5.610315380859374 4.443396044921875 5.6262153808593744 Q 4.464396044921875 5.642115380859375 4.502196044921875 5.642115380859375 Q 4.538196044921875 5.642115380859375 4.563996044921875 5.625615380859374 M 4.847212158203124 5.370915380859374 Q 4.876912158203124 5.354715380859375 4.920712158203124 5.354715380859375 L 4.920712158203124 5.396115380859374 L 4.910512158203124 5.395515380859375 Q 4.860712158203125 5.395515380859375 4.832512158203125 5.4261153808593745 Q 4.804312158203125 5.456715380859374 4.804312158203125 5.511915380859374 L 4.804312158203125 5.672715380859374 L 4.7617121582031245 5.672715380859374 L 4.7617121582031245 5.3571153808593746 L 4.8025121582031245 5.3571153808593746 L 4.8025121582031245 5.418915380859374 Q 4.817512158203124 5.387115380859375 4.847212158203124 5.370915380859374" fill="#af2cff" fill-rule="nonzero"></path></g></g><defs><clipPath id="SvgjsClipPath6270"><path d=" M -1.0999999999999996 -4.041515380859375 h 8.76903076171875 v 8.76903076171875 h -8.76903076171875 Z"></path></clipPath></defs></svg>